<?xml version="1.0" encoding="UTF-8" standalone="no"?>
<!-- Created with Inkscape (http://www.inkscape.org/) -->

<svg
   width="210mm"
   height="297mm"
   viewBox="0 0 210 297"
   version="1.1"
   id="svg5"
   xml:space="preserve"
   xmlns:inkscape="http://www.inkscape.org/namespaces/inkscape"
   xmlns:sodipodi="http://sodipodi.sourceforge.net/DTD/sodipodi-0.dtd"
   xmlns="http://www.w3.org/2000/svg"
   xmlns:svg="http://www.w3.org/2000/svg"><sodipodi:namedview
     id="namedview7"
     pagecolor="#ffffff"
     bordercolor="#000000"
     borderopacity="0.25"
     inkscape:showpageshadow="2"
     inkscape:pageopacity="0.0"
     inkscape:pagecheckerboard="0"
     inkscape:deskcolor="#d1d1d1"
     inkscape:document-units="mm"
     showgrid="false" /><defs
     id="defs2" /><g
     inkscape:label="图层 1"
     inkscape:groupmode="layer"
     id="layer1"><path
       id="rect2235"
       style="opacity:1;fill:#000000;stroke-width:0.346965"
       d="m 24.534072,29.633529 c -0.827515,-0.02635 -5.699564,2.78566 -1.044221,13.563596 6.335291,14.667305 0.220429,7.972893 -15.5183262,-6.750174 -15.7387531,-14.72307 -2.6041861,16.79983 1.4721348,21.630768 4.0763194,4.830935 18.3090934,30.719655 55.7956784,43.811791 5.816303,2.03135 11.0103,3.75266 14.580759,4.98127 5.273727,0.28729 -14.490276,9.86478 -17.414094,13.5452 -6.273429,7.89675 -5.042982,8.47893 -8.697349,11.69805 -7.384998,6.50538 4.799924,5.99431 9.555308,7.37498 0,0 -4.663586,8.2248 -7.483878,13.85398 -5.969339,11.91448 -11.270547,11.3699 -16.931995,16.27469 -1.410682,1.22215 0.0401,6.1073 1.830446,5.57974 5.762667,-1.69809 11.736189,-5.04583 16.12404,-9.47374 6.060589,-6.1159 7.481995,-15.68281 12.882404,-22.38883 3.268971,-4.05929 10.961307,-6.03181 11.578176,-10.50817 0.676453,-4.90875 -0.751828,-4.43981 -2.764635,-4.45192 -2.170203,-0.0135 -5.953096,4.74636 -9.527721,5.71378 -3.383466,0.91568 -7.504036,1.37329 -10.514843,-0.1219 -2.807328,-1.39414 19.900301,-21.22216 26.212547,-21.21185 4.56069,0.008 8.525087,-3.38009 13.029169,-3.74139 2.006589,-0.16096 4.222338,-0.23186 5.996018,0.72019 1.34649,0.72275 3.9124,2.28742 2.97126,3.49144 -2.13568,2.73223 -6.971437,1.99636 -10.24978,3.51148 -2.605579,1.20418 -7.023013,1.55116 -7.404497,4.3961 -0.182524,1.36121 1.562185,3.40137 2.863527,2.96242 2.871274,-0.9685 5.416308,-1.96009 8.16077,-1.57945 4.41597,0.61248 7.5354,6.68418 11.94375,6.01911 3.09631,-0.46711 4.08791,-4.89567 6.76843,-6.51436 3.79421,-2.29122 8.28937,-3.24634 12.62098,-4.18596 6.96714,-1.51135 17.22601,-3.51062 21.26529,-2.28368 1.84875,0.56157 0.85052,4.15285 2.26679,5.57252 2.06719,2.07214 7.2252,0.54309 8.12571,3.32808 0.64729,2.00186 -1.59528,4.17515 -3.33449,5.35904 -2.54307,1.73106 -6.17795,0.63604 -9.07802,1.66235 -7.82208,2.76814 -15.20528,6.953 -21.85512,11.91557 -8.62224,6.4345 -12.44849,20.11889 -22.87553,22.76886 -10.473308,2.66174 -21.197719,-6.76301 -31.108231,-9.12446 -5.54023,-1.3201 4.630849,7.26787 8.095525,9.63092 5.869634,4.00334 13.353909,3.9041 20.196426,6.81293 4.25983,1.81088 -12.259354,37.4831 -22.798133,53.89863 -8.934868,13.91722 -24.311761,26.95181 -33.502745,36.5958 -1.123678,1.17906 -0.819292,5.93927 0.408579,4.86915 15.520081,-13.52622 28.024062,-21.69779 44.08193,-50.33367 22.141119,-39.48418 20.550619,-42.84138 21.999149,-49.02731 0.72427,-3.09297 11.01344,-11.30196 18.9742,-18.37213 9.12472,-8.10393 10.15414,-9.15045 14.71787,-11.23336 9.12741,-4.16578 15.31104,-0.46218 17.10601,-4.90477 1.69812,-4.20292 5.19018,-8.94572 3.10752,-12.81731 -1.58429,-2.9451 -7.19885,-0.91764 -9.4384,-3.40116 -1.56174,-1.73188 0.1254,-5.31624 -1.68102,-6.79118 -1.78276,-1.45565 -6.33821,-0.33116 -6.89877,-0.28517 l -21.65258,1.77546 c -8.02682,0.65822 -16.57941,-4.99443 -21.91498,-8.31389 2.77146,-0.55289 6.25357,-1.06417 10.74067,-1.47395 36.83605,-3.3639 54.2274,-12.120826 67.9723,-21.023788 6.2645,-4.05772 24.65825,-19.060002 25.3409,-27.345749 1.06913,-12.975372 -13.96618,-1.70719 -29.76845,10.088639 -16.03654,11.970707 7.80179,-33.56851 -14.90025,-8.990771 -9.16234,9.919374 -12.13314,11.461152 -26.25133,21.926351 -4.26329,3.160166 8.42101,-17.260785 2.38743,-14.538177 -8.62384,3.891477 -27.40533,13.746977 -37.20014,14.771735 C 91.685791,79.827375 68.622922,72.376214 59.501838,42.88369 50.98726,15.352312 45.055536,52.876262 52.94022,61.893865 57.701991,70.436339 42.446703,65.626164 36.432517,51.484458 32.117446,41.338048 25.668068,29.669638 24.534072,29.633529 Z M 159.26004,112.17234 c -2.19558,0.005 -1.77619,6.19303 0.32289,6.67994 2.50981,0.58217 7.48769,2.63027 7.59304,0.0579 0.16593,-4.05159 -4.88534,-6.74615 -7.91593,-6.73791 z m -38.74293,5.25434 c 2.05819,0.46105 -2.18724,0.24018 -4.77265,3.04257 -1.53037,1.65878 -2.18677,3.69652 -4.05317,3.92163 -3.79674,0.45792 -11.52524,-5.37832 -9.90546,-5.78847 9.74096,-2.46662 11.50416,-2.7947 18.73128,-1.17573 z M 82.190823,182.7248 c -1.405607,12.46031 -19.952738,39.08254 -37.997788,53.8443 -2.48867,2.03585 -3.11966,10.0431 -0.303179,10.86584 3.670949,1.07236 42.150573,-56.8331 42.91853,-61.69363 0.644015,-4.07608 -3.873691,-9.61071 -4.617563,-3.01651 z"
       sodipodi:nodetypes="ssssscsscsssaassassaasaasaaaasaaaaaasasasssssssaaaccccscsssssscsscssscssasssssss" /></g></svg>
